<svg width="46" height="48" viewBox="0 0 46 48" fill="none" xmlns="http://www.w3.org/2000/svg">
<rect width="45.6" height="48" fill="white"/>
<rect width="16.8" height="16.8" transform="translate(6 7.2)" fill="white"/>
<path d="M17.4305 20.2687C18.0914 20.2687 18.5344 19.8047 18.5344 19.1227V10.9523C18.5344 10.2703 18.0914 9.80625 17.4305 9.80625C16.7625 9.80625 16.3266 10.2773 16.3266 10.9523V13.9547H12.4734V10.9523C12.4734 10.2703 12.0305 9.80625 11.3695 9.80625C10.7086 9.80625 10.2586 10.2703 10.2586 10.9523V19.1227C10.2586 19.8047 10.7086 20.2687 11.3695 20.2687C12.0305 20.2687 12.4734 19.8047 12.4734 19.1227V16.0641H16.3266V19.1227C16.3266 19.7977 16.7625 20.2687 17.4305 20.2687Z" fill="black"/>
<rect width="16.8" height="16.8" transform="translate(22.8 7.2)" fill="white"/>
<path d="M31.193 20.3109C33.8156 20.3109 35.5102 18.6445 35.5102 16.1133V10.9523C35.5102 10.2773 35.0531 9.80625 34.3852 9.80625C33.7242 9.80625 33.2883 10.2773 33.2883 10.9523V15.9023C33.2883 17.1891 32.4656 18.068 31.193 18.068C29.9344 18.068 29.1047 17.1891 29.1047 15.9023V10.9523C29.1047 10.2773 28.6688 9.80625 28.0078 9.80625C27.3398 9.80625 26.8758 10.2773 26.8758 10.9523V16.1133C26.8758 18.6445 28.5773 20.3109 31.193 20.3109Z" fill="black"/>
<rect width="16.8" height="16.8" transform="translate(6 24)" fill="white"/>
<path d="M11.8828 36.9H17.1352C17.782 36.9 18.2531 36.45 18.2531 35.8031C18.2531 35.1492 17.782 34.6992 17.1352 34.6992H12.9867V32.8219H16.7414C17.332 32.8219 17.7891 32.407 17.7891 31.7953C17.7891 31.1977 17.3461 30.7617 16.7414 30.7617H12.9867V28.9758H17.1141C17.768 28.9758 18.225 28.5258 18.225 27.8719C18.225 27.225 17.768 26.775 17.1141 26.775H11.8828C11.2148 26.775 10.7719 27.2391 10.7719 27.9211V35.7539C10.7719 36.4359 11.2148 36.9 11.8828 36.9Z" fill="black"/>
<rect width="16.8" height="16.8" transform="translate(22.8 24)" fill="white"/>
<path d="M28.2806 37.0688C28.9556 37.0688 29.3986 36.6047 29.3986 35.9227V27.7523C29.3986 27.0703 28.9556 26.6063 28.2806 26.6063C27.6127 26.6063 27.1697 27.0703 27.1697 27.7523V35.9227C27.1697 36.6047 27.6127 37.0688 28.2806 37.0688ZM34.1053 37.0688C34.7803 37.0688 35.2233 36.6047 35.2233 35.9227V27.7523C35.2233 27.0703 34.7803 26.6063 34.1053 26.6063C33.4373 26.6063 32.9944 27.0703 32.9944 27.7523V35.9227C32.9944 36.6047 33.4373 37.0688 34.1053 37.0688Z" fill="black"/>
</svg>
