<svg width="38" height="40" viewBox="0 0 38 40" fill="none" xmlns="http://www.w3.org/2000/svg">
  <rect width="38" height="40" fill="white"/>
  <rect width="14" height="14" transform="translate(5 6)" fill="white"/>
  <path d="M14.5254 17.1406C15.0762 17.1406 15.4453 16.7539 15.4453 16.1855V9.37695C15.4453 8.80859 15.0762 8.42188 14.5254 8.42188C13.9688 8.42188 13.6055 8.81445 13.6055 9.37695V11.8789H10.3945V9.37695C10.3945 8.80859 10.0254 8.42188 9.47461 8.42188C8.92383 8.42188 8.54883 8.80859 8.54883 9.37695V16.1855C8.54883 16.7539 8.92383 17.1406 9.47461 17.1406C10.0254 17.1406 10.3945 16.7539 10.3945 16.1855V13.6367H13.6055V16.1855C13.6055 16.748 13.9688 17.1406 14.5254 17.1406Z" fill="black"/>
  <rect width="14" height="14" transform="translate(19 6)" fill="white"/>
  <path d="M25.9941 17.1758C28.1797 17.1758 29.5918 15.7871 29.5918 13.6777V9.37695C29.5918 8.81445 29.2109 8.42188 28.6543 8.42188C28.1035 8.42188 27.7402 8.81445 27.7402 9.37695V13.502C27.7402 14.5742 27.0547 15.3066 25.9941 15.3066C24.9453 15.3066 24.2539 14.5742 24.2539 13.502V9.37695C24.2539 8.81445 23.8906 8.42188 23.3398 8.42188C22.7832 8.42188 22.3965 8.81445 22.3965 9.37695V13.6777C22.3965 15.7871 23.8145 17.1758 25.9941 17.1758Z" fill="black"/>
  <rect width="14" height="14" transform="translate(5 20)" fill="white"/>
  <path d="M9.90234 31H14.2793C14.8184 31 15.2109 30.625 15.2109 30.0859C15.2109 29.541 14.8184 29.166 14.2793 29.166H10.8223V27.6016H13.9512C14.4434 27.6016 14.8242 27.2559 14.8242 26.7461C14.8242 26.248 14.4551 25.8848 13.9512 25.8848H10.8223V24.3965H14.2617C14.8066 24.3965 15.1875 24.0215 15.1875 23.4766C15.1875 22.9375 14.8066 22.5625 14.2617 22.5625H9.90234C9.3457 22.5625 8.97656 22.9492 8.97656 23.5176V30.0449C8.97656 30.6133 9.3457 31 9.90234 31Z" fill="black"/>
  <rect width="14" height="14" transform="translate(19 20)" fill="white"/>
  <path d="M23.5672 31.1406C24.1297 31.1406 24.4988 30.7539 24.4988 30.1855V23.377C24.4988 22.8086 24.1297 22.4219 23.5672 22.4219C23.0105 22.4219 22.6414 22.8086 22.6414 23.377V30.1855C22.6414 30.7539 23.0105 31.1406 23.5672 31.1406ZM28.4211 31.1406C28.9836 31.1406 29.3527 30.7539 29.3527 30.1855V23.377C29.3527 22.8086 28.9836 22.4219 28.4211 22.4219C27.8645 22.4219 27.4953 22.8086 27.4953 23.377V30.1855C27.4953 30.7539 27.8645 31.1406 28.4211 31.1406Z" fill="black"/>
</svg>
