<svg width="61" height="64" viewBox="0 0 61 64" fill="none" xmlns="http://www.w3.org/2000/svg">
<rect width="60.8" height="64" fill="white"/>
<rect width="22.4" height="22.4" transform="translate(8 9.6)" fill="white"/>
<path d="M23.2406 27.025C24.1219 27.025 24.7125 26.4062 24.7125 25.4969V14.6031C24.7125 13.6937 24.1219 13.075 23.2406 13.075C22.35 13.075 21.7687 13.7031 21.7687 14.6031V18.6062H16.6312V14.6031C16.6312 13.6937 16.0406 13.075 15.1594 13.075C14.2781 13.075 13.6781 13.6937 13.6781 14.6031V25.4969C13.6781 26.4062 14.2781 27.025 15.1594 27.025C16.0406 27.025 16.6312 26.4062 16.6312 25.4969V21.4187H21.7687V25.4969C21.7687 26.3969 22.35 27.025 23.2406 27.025Z" fill="black"/>
<rect width="22.4" height="22.4" transform="translate(30.4 9.6)" fill="white"/>
<path d="M41.5906 27.0812C45.0875 27.0812 47.3469 24.8594 47.3469 21.4844V14.6031C47.3469 13.7031 46.7375 13.075 45.8469 13.075C44.9656 13.075 44.3844 13.7031 44.3844 14.6031V21.2031C44.3844 22.9187 43.2875 24.0906 41.5906 24.0906C39.9125 24.0906 38.8062 22.9187 38.8062 21.2031V14.6031C38.8062 13.7031 38.225 13.075 37.3437 13.075C36.4531 13.075 35.8344 13.7031 35.8344 14.6031V21.4844C35.8344 24.8594 38.1031 27.0812 41.5906 27.0812Z" fill="black"/>
<rect width="22.4" height="22.4" transform="translate(8 32)" fill="white"/>
<path d="M15.8437 49.2H22.8469C23.7094 49.2 24.3375 48.6 24.3375 47.7375C24.3375 46.8656 23.7094 46.2656 22.8469 46.2656H17.3156V43.7625H22.3219C23.1094 43.7625 23.7187 43.2094 23.7187 42.3938C23.7187 41.5969 23.1281 41.0156 22.3219 41.0156H17.3156V38.6344H22.8187C23.6906 38.6344 24.3 38.0344 24.3 37.1625C24.3 36.3 23.6906 35.7 22.8187 35.7H15.8437C14.9531 35.7 14.3625 36.3188 14.3625 37.2281V47.6719C14.3625 48.5813 14.9531 49.2 15.8437 49.2Z" fill="black"/>
<rect width="22.4" height="22.4" transform="translate(30.4 32)" fill="white"/>
<path d="M37.7075 49.425C38.6075 49.425 39.1981 48.8063 39.1981 47.8969V37.0031C39.1981 36.0938 38.6075 35.475 37.7075 35.475C36.8169 35.475 36.2262 36.0938 36.2262 37.0031V47.8969C36.2262 48.8063 36.8169 49.425 37.7075 49.425ZM45.4737 49.425C46.3737 49.425 46.9644 48.8063 46.9644 47.8969V37.0031C46.9644 36.0938 46.3737 35.475 45.4737 35.475C44.5831 35.475 43.9925 36.0938 43.9925 37.0031V47.8969C43.9925 48.8063 44.5831 49.425 45.4737 49.425Z" fill="black"/>
</svg>
